PathFileType	4	(X/Y/Z)	C:\Users\°ÂÌØÂü\Desktop\20210112\bx_y_0_1802-Unnamed.trc
DataRate	CameraRate	NumFrames	NumMarkers	Units	OrigDataRate	OrigDataStartFrame	OrigNumFrames
50.00	50.00	       4	0	mm	50.00	47	       375
Frame#	Time	
		

47	0.920	-682.99982	-71.90217	1541.81189				-644.00256	282.19266	877.26404	-583.98364	220.50604	815.69012				-724.50671	249.63670	641.40790	-692.18561	83.32594	574.81134	-728.85895	245.62276	576.60382	-668.75671	21.33492	519.27527	-770.32971	254.70071	502.92184	-675.28687	205.83626	532.37573	-716.87854	80.31236	216.26634	-664.76294	-65.25024	164.56766	-711.72150	151.22188	216.39351	-771.56299	221.60841	205.35568	-882.55695	296.07217	144.59824	-603.01129	20.11806	166.03667	-675.52893	171.48549	156.56464	-594.97479	222.01430	173.72047	-666.74738	298.05936	160.84969	-560.05859	260.88492	165.28873	-528.07770	304.24625	146.45256	-643.49005	116.62585	1845.06970	-715.00708	291.01886	1530.90149	-623.30457	-76.82426	160.40834	-517.73102	-72.70691	142.79147	-628.95563	305.92203	163.18152	-619.87396	107.26863	1427.92285	-766.89606	-3.11772	207.93535	-794.50653	57.60933	175.01741	-796.67188	171.55188	184.17749	-793.36115	95.31946	1054.30286	-764.27649	-32.29023	488.36679	-875.85522	-78.73365	141.22168	-693.58600	-45.35061	716.50531	-701.90924	-25.42622	615.11646	-716.65082	-22.00468	566.85168	-559.72906	-41.73017	162.50246	-593.99731	-3.00314	1048.56213	-589.79810	223.22165	1069.72717	-584.02686	-0.16586	802.37604	-689.11877	144.16437	573.73822	-674.67834	57.20728	156.32884	-693.51208	272.28775	747.95325	-649.09711	-66.11539	858.17682	
48	0.940	-683.16956	-71.81332	1541.70288				-644.00256	282.19266	877.26404	-584.09680	220.59113	815.64465				-724.50952	250.11215	641.61285	-692.43463	83.51152	574.80292	-728.93256	245.83887	576.70612	-668.81720	21.29003	519.35974	-770.41486	254.69939	503.16104	-675.19849	205.99042	532.43579	-716.81024	80.25484	215.78944	-664.73914	-65.32480	164.73422	-711.72150	151.22188	216.39351	-771.55920	221.36783	205.12555	-882.41083	295.98792	144.58159	-602.99475	20.01706	166.10085	-675.30359	171.59724	156.77390	-594.90125	221.90468	173.72940	-666.81732	298.12793	160.81508	-560.12421	261.02170	165.06126	-528.03583	304.25760	146.54501	-643.47003	116.65060	1845.00024	-715.16577	291.04816	1530.89099	-623.37115	-76.77464	160.31845	-517.72174	-72.61513	142.64165	-628.96667	305.87976	163.20116	-620.18634	107.33665	1427.81104	-766.95001	-3.14826	207.80511	-794.52814	57.53234	174.91707	-796.64691	171.52228	184.01466	-793.43018	95.43184	1054.33984	-764.32458	-32.35190	488.23309	-875.85034	-78.68372	141.27127	-693.58600	-45.35061	716.50531	-701.89648	-25.50558	615.09894	-716.65076	-21.92834	566.72314	-559.79053	-41.79961	162.36650	-593.96265	-2.47546	1048.67139	-589.89447	223.35545	1069.74890	-583.78680	-0.03355	802.33826	-689.11877	144.16437	573.73822	-674.67834	57.20728	156.32884	-694.03918	272.62134	748.37903	-649.08990	-66.06472	858.25043	
49	0.960	-683.29382	-71.70908	1541.70935				-644.15723	282.30505	877.20331	-584.16302	220.54018	815.75745				-724.56494	250.14427	641.60498	-692.70148	83.71850	574.48486	-728.93256	245.83887	576.70612	-668.81720	21.29003	519.35974	-770.36450	254.57388	503.18970	-675.29767	205.90944	532.38776	-716.83130	80.02338	216.20218	-664.58661	-65.39462	164.58243	-711.72150	151.22188	216.39351	-771.47833	221.69073	205.54558	-882.57581	295.99649	144.46762	-602.99432	20.04988	166.02995	-675.30359	171.59724	156.77390	-594.96509	221.93823	173.67229	-666.75958	298.12811	160.88831	-560.17157	260.88010	165.19376	-527.90717	304.24350	146.56856	-643.68451	116.70329	1845.01868	-715.28821	291.03156	1530.82373	-623.52954	-76.74477	160.51790	-517.63617	-72.92487	142.80826	-628.88257	305.80225	163.24272	-620.18634	107.33665	1427.81104	-766.91681	-3.00195	207.86789	-794.52814	57.53234	174.91707	-796.74023	171.60278	184.03560	-793.59161	95.41548	1054.27771	-764.27045	-32.38879	488.31223	-875.85522	-78.73365	141.22168	-693.58600	-45.35061	716.50531	-701.98749	-25.41281	615.06384	-716.60797	-22.00352	566.95300	-559.72906	-41.73017	162.50246	-593.97565	-2.57109	1048.81458	-589.89447	223.35545	1069.74890	-583.87152	0.21023	802.36279	-688.87543	143.91275	573.86340	-674.73938	57.27037	156.21236	-694.09021	272.65964	748.45319	-649.09711	-66.11539	858.17682	
50	0.980	-683.33209	-71.51521	1541.57654				-644.15723	282.30505	877.20331	-584.18945	220.85272	815.78571				-724.60114	250.16016	641.66644	-692.88184	83.89693	574.39880	-728.95923	245.78569	576.67365	-668.81720	21.29003	519.35974	-770.41376	254.55113	502.90643	-675.22430	205.87267	532.32208	-716.96460	80.20066	216.21190	-664.63000	-65.31757	164.64613	-711.72150	151.22188	216.39351	-771.51636	221.68190	205.48056	-882.46344	296.07651	144.61064	-602.86871	19.98170	166.05539	-675.59937	171.63969	156.63808	-594.90125	221.90468	173.72940	-666.86542	298.03348	160.85106	-560.27252	260.91058	165.27846	-528.07770	304.24625	146.45256	-643.81262	116.89130	1845.02820	-715.43494	291.20752	1530.74146	-623.36517	-76.84662	160.26151	-517.63617	-72.92487	142.80826	-628.93231	305.76315	163.35231	-620.18634	107.33665	1427.81104	-766.85767	-3.05719	207.92113	-794.50653	57.60933	175.01741	-796.72839	171.56490	184.01707	-793.71472	95.60498	1054.40222	-764.16833	-32.31148	488.46667	-875.87817	-78.62728	141.29668	-693.58600	-45.35061	716.50531	-702.00024	-25.33344	615.08136	-716.60992	-21.91430	566.80353	-559.72906	-41.73017	162.50246	-594.24597	-2.13031	1048.62061	-589.99988	223.32454	1069.80078	-584.09192	0.21792	802.37329	-688.71869	143.97511	574.03351	-674.67834	57.20728	156.32884	-694.33337	272.83777	748.42615	-648.86017	-65.59219	858.02789	
